<svg width="280" height="70" viewBox="0 0 280 70" fill="none" xmlns="http://www.w3.org/2000/svg">
<g clip-path="url(#clip0_602_236)">
<rect x="54.6342" width="170.732" height="54.1935" fill="#252525"/>
<path d="M20.272 42.8639L0.671999 65.5696C-1.3113e-06 66.3449 -0.168001 67.4525 0.279999 68.4494C0.727999 69.3908 1.68 70 2.744 70H67.76C67.928 70 68.096 70 68.208 69.9446L68.712 69.8339C68.768 69.8339 68.88 69.7785 68.936 69.7231C68.992 69.7231 69.048 69.6677 69.104 69.6677H69.16L69.216 69.6123C69.272 69.557 69.328 69.5016 69.384 69.5016C69.44 69.4462 69.496 69.4462 69.552 69.3908L69.608 69.3354C69.776 69.2247 69.888 69.0585 69.944 68.9478L70 68.8924C70.112 68.7816 70.168 68.6155 70.224 68.4494V68.394C70.28 68.2832 70.28 68.1725 70.336 68.0063V67.951C70.392 67.7848 70.392 67.6741 70.392 67.5079V54.4383H209.552V67.4525C209.552 67.5079 209.552 67.6187 209.552 67.674C209.552 67.7294 209.552 67.7848 209.552 67.8402V67.951C209.552 68.0063 209.608 68.0617 209.608 68.1725C209.608 68.2279 209.664 68.2832 209.664 68.3386V68.394C209.72 68.5601 209.832 68.6709 209.944 68.837C210.056 69.0032 210.112 69.0585 210.28 69.2247L210.336 69.2801H210.392C210.504 69.3354 210.56 69.4462 210.672 69.4462L210.728 69.5016C210.896 69.6123 211.008 69.6677 211.176 69.7231L211.624 69.8339H211.68C211.848 69.8892 211.96 69.8892 212.128 69.8892H277.2C278.264 69.8892 279.272 69.2801 279.664 68.3386C280.112 67.3418 279.944 66.2342 279.272 65.4589L259.672 42.7532L279.104 24.1456C279.888 23.3703 280.112 22.2073 279.776 21.2104C279.328 20.1582 278.376 19.4937 277.256 19.4937H229.376V2.71361C229.376 1.21835 228.144 0 226.632 0H52.92C51.408 0 50.176 1.21835 50.176 2.71361V19.6044H2.688C1.568 19.6044 0.615999 20.269 0.167999 21.3212C-0.280001 22.318 -1.3113e-06 23.481 0.839999 24.2563L20.272 42.8639ZM254.24 40.7041C253.232 41.701 253.12 43.307 254.072 44.3592L271.488 64.5174H218.624L228.312 54.2722C228.648 53.9399 228.816 53.4968 228.928 53.1646C229.208 52.7215 229.376 52.2231 229.376 51.7247V25.0316H270.592L254.24 40.7041ZM64.96 54.3829V60.4747L59.136 54.3829H64.96ZM55.608 49.0111V5.42722H223.944V49.0111H55.608ZM220.752 54.3829L214.984 60.4747V54.3829H220.752ZM50.232 52.1677V52.2231C50.232 52.2785 50.232 52.2785 50.232 52.3339C50.232 52.4446 50.288 52.5 50.344 52.6108V52.6661C50.344 52.7215 50.4 52.8323 50.456 52.8877C50.456 52.943 50.512 52.9984 50.512 53.0538C50.512 53.1092 50.568 53.1646 50.624 53.2199C50.68 53.3307 50.736 53.3861 50.792 53.4968V53.5522L61.32 64.6282H8.568L25.984 44.4699C26.936 43.4177 26.824 41.7563 25.816 40.8149L9.408 25.0316H50.176V51.7247C50.176 51.8354 50.176 52.0016 50.232 52.1677Z" fill="white"/>
</g>
<defs>
<clipPath id="clip0_602_236">
<rect width="280" height="70" fill="white"/>
</clipPath>
</defs>
</svg>
