<svg width="30" height="31" viewBox="0 0 30 31" fill="none" xmlns="http://www.w3.org/2000/svg">
<g clip-path="url(#clip0_435_906)">
<path d="M29.9215 12.0067C29.724 11.3993 29.1852 10.9692 28.5503 10.9118L19.8902 10.1255L16.4677 2.1127C16.215 1.52401 15.64 1.14406 15 1.14406C14.3601 1.14406 13.7849 1.52401 13.5338 2.1127L10.1113 10.1255L1.44978 10.9118C0.814851 10.9703 0.277199 11.4004 0.0785259 12.0067C-0.119002 12.6142 0.0634194 13.2805 0.543621 13.7016L7.08998 19.4419L5.15979 27.9431C5.01856 28.5682 5.26118 29.2146 5.77984 29.5895C6.05862 29.7921 6.38616 29.8932 6.71484 29.8932C6.99728 29.8932 7.27995 29.8182 7.53241 29.6671L15 25.202L22.4663 29.6671C23.014 29.9944 23.7027 29.9644 24.2202 29.5895C24.7389 29.2146 24.9815 28.5682 24.8403 27.9431L22.9101 19.4419L29.4565 13.7016C29.9364 13.2805 30.1191 12.6156 29.9215 12.0067Z" fill="white"/>
</g>
<defs>
<clipPath id="clip0_435_906">
<rect width="30" height="30" fill="white" transform="translate(0 0.5)"/>
</clipPath>
</defs>
</svg>
