<svg width="41" height="40" viewBox="0 0 41 40" fill="none" xmlns="http://www.w3.org/2000/svg">
<path d="M40.5 10.1805C40.5 10.1805 40.5 34.0308 40.5 36.1523C40.5 38.2738 38.8333 40 36.7848 40H11.507C9.45855 40 7.79194 38.2738 7.79194 36.1523V19.2649C8.32188 19.3562 8.86248 19.4154 9.41728 19.4154C9.81072 19.4154 10.1969 19.3852 10.5783 19.3384V36.1523C10.5783 36.6826 10.9948 37.1141 11.507 37.1141H36.7848C37.2969 37.1141 37.7136 36.6825 37.7136 36.1523V10.1805C37.7136 9.64999 37.2968 9.21858 36.7848 9.21858H19.2628C19.2628 8.21536 19.1173 7.24845 18.8564 6.33288H36.7848C38.8333 6.3328 40.5 8.0589 40.5 10.1805ZM9.26214 18.1494C4.43054 18.1494 0.5 14.0786 0.5 9.07483C0.500077 4.07081 4.43054 0 9.26214 0C14.0936 0 18.0243 4.07081 18.0243 9.07483C18.0243 14.0786 14.0936 18.1494 9.26214 18.1494ZM9.26214 16.2255C13.0691 16.2255 16.1665 13.0181 16.1665 9.07483C16.1665 5.13132 13.0695 1.92388 9.26214 1.92388C5.45459 1.92388 2.35759 5.13132 2.35759 9.07483C2.35759 13.0181 5.45505 16.2255 9.26214 16.2255ZM14.5171 10.0368C15.0298 10.0368 15.4459 9.60588 15.4459 9.07491C15.4459 8.54394 15.0298 8.11301 14.5171 8.11301H10.1909V4.33693C10.1909 3.80596 9.77482 3.37503 9.26214 3.37503C8.74946 3.37503 8.33338 3.80596 8.33338 4.33693V9.07491C8.33338 9.60588 8.74946 10.0368 9.26214 10.0368H14.5171ZM33.5645 17.8359H15.1751C14.6624 17.8359 14.2463 18.2669 14.2463 18.7978C14.2463 19.3289 14.6624 19.7597 15.1751 19.7597H33.5645C34.0774 19.7597 34.4933 19.3288 34.4933 18.7978C34.4934 18.2669 34.0774 17.8359 33.5645 17.8359ZM33.5809 23.6708H15.1914C14.6788 23.6708 14.2627 24.1015 14.2627 24.6327C14.2627 25.1639 14.6788 25.5946 15.1914 25.5946H33.5809C34.0938 25.5946 34.5095 25.1639 34.5095 24.6327C34.5095 24.1015 34.0942 23.6708 33.5809 23.6708ZM33.5809 29.7472H15.1914C14.6788 29.7472 14.2627 30.1784 14.2627 30.7091C14.2627 31.2403 14.6788 31.6709 15.1914 31.6709H33.5809C34.0938 31.6709 34.5095 31.2402 34.5095 30.7091C34.5096 30.1783 34.0942 29.7472 33.5809 29.7472Z" fill="white"/>
</svg>
