<svg width="33" height="32" viewBox="0 0 33 32" fill="none" xmlns="http://www.w3.org/2000/svg">
<g clip-path="url(#clip0_674_970)">
<path d="M31.3515 0.258645L21.7504 4.1535C21.5539 4.23323 21.334 4.23323 21.1374 4.1535L11.8625 0.390916C11.6659 0.311138 11.446 0.311138 11.2495 0.390916L1.03545 4.53454C0.727843 4.6593 0.526611 4.95816 0.526611 5.29006V30.9858C0.526611 31.5643 1.11235 31.9588 1.64847 31.7414L11.2495 27.8465C11.446 27.7668 11.666 27.7668 11.8625 27.8465L21.1373 31.609C21.3339 31.6889 21.5537 31.6889 21.7504 31.609L31.9644 27.4655C32.272 27.3408 32.4733 27.0419 32.4733 26.7099V1.01417C32.4733 0.435628 31.8875 0.0411065 31.3515 0.258645ZM10.4145 25.7215L2.80965 28.8066V6.27847L10.4145 3.19339V25.7215ZM20.3024 28.8066L12.6975 25.7215V3.19339L20.3024 6.27847V28.8066ZM30.1903 25.7215L22.5854 28.8066V6.27847L30.1903 3.19339V25.7215Z" fill="white"/>
<path d="M1.34138 31.8286C0.877469 31.8286 0.5 31.4506 0.5 30.9859V5.29004C0.5 4.94556 0.706294 4.63929 1.02546 4.50979L11.2395 0.366215C11.4415 0.284252 11.6705 0.284252 11.8726 0.366215L21.1474 4.12886C21.3367 4.2056 21.5511 4.2056 21.7405 4.12886L31.3415 0.233891C31.4439 0.192376 31.5506 0.171326 31.6587 0.171326C32.1226 0.171326 32.5 0.549434 32.5 1.01414V26.7099C32.5 27.0545 32.2937 27.3607 31.9745 27.4901L21.7605 31.6337C21.5585 31.7158 21.3295 31.7158 21.1274 31.6337L11.8526 27.8712C11.6633 27.7944 11.4487 27.7945 11.2596 27.8712L1.65852 31.7661C1.5562 31.8076 1.44945 31.8286 1.34138 31.8286ZM11.556 0.357688C11.4539 0.357688 11.3541 0.37714 11.2595 0.415564L1.0455 4.55919C0.746476 4.68048 0.553292 4.96735 0.553292 5.29004V30.9858C0.553292 31.4212 0.906833 31.7753 1.34138 31.7753C1.44258 31.7753 1.54256 31.7556 1.63848 31.7167L11.2395 27.8218C11.4415 27.7398 11.6705 27.7397 11.8726 27.8218L21.1474 31.5843C21.3367 31.6611 21.5512 31.6611 21.7404 31.5843L31.9544 27.4407C32.2534 27.3195 32.4467 27.0326 32.4467 26.7098V1.01414C32.4467 0.578798 32.0931 0.224618 31.6586 0.224618C31.5574 0.224618 31.4574 0.244389 31.3615 0.283293L21.7604 4.1782C21.5584 4.26017 21.3294 4.26017 21.1274 4.1782L11.8525 0.415564C11.7579 0.377193 11.6581 0.357688 11.556 0.357688ZM22.5588 28.8461V6.26054L22.5754 6.25383L30.217 3.15382V25.7394L30.2003 25.7461L22.5588 28.8461ZM22.6121 6.29641V28.767L30.1637 25.7035V3.23296L22.6121 6.29641ZM20.3291 28.8461L20.2924 28.8313L12.6709 25.7394V3.15382L12.7075 3.16869L20.3291 6.26054V28.8461ZM12.7242 25.7035L20.2758 28.767V6.29641L12.7242 3.23296V25.7035ZM2.78304 28.8461V6.26054L10.4412 3.15382V25.7394L10.4246 25.7461L2.78304 28.8461ZM2.83633 6.29641V28.767L10.3879 25.7035V3.23291L2.83633 6.29641Z" fill="white"/>
</g>
<defs>
<clipPath id="clip0_674_970">
<rect width="32" height="32" fill="white" transform="translate(0.5)"/>
</clipPath>
</defs>
</svg>
