<svg width="35" height="34" viewBox="0 0 35 34" fill="none" xmlns="http://www.w3.org/2000/svg">
<g clip-path="url(#clip0_674_975)">
<path d="M33.7772 15.3342C33.0311 14.8366 32.0231 15.0381 31.5258 15.7841L31.4775 15.8565C30.8903 7.83615 24.1776 1.48993 16.0099 1.48993C7.45771 1.49004 0.5 8.44775 0.5 17C0.5 25.5522 7.45771 32.5099 16.0099 32.5099C17.2054 32.5099 18.1745 31.5408 18.1745 30.3454C18.1745 29.1499 17.2054 28.1808 16.0099 28.1808C9.84477 28.1807 4.82909 23.165 4.82909 17C4.82909 10.8349 9.84477 5.81912 16.0099 5.81912C21.7241 5.81912 26.4501 10.1282 27.1109 15.6674C26.59 15.019 25.6513 14.8641 24.9464 15.3342C24.2003 15.8317 23.9989 16.8397 24.4963 17.5856L27.7109 22.4061C28.0902 22.975 28.7075 23.3146 29.3619 23.3146C30.0164 23.3146 30.6335 22.9749 31.0126 22.4061L34.2272 17.5856C34.7245 16.8396 34.5231 15.8317 33.7772 15.3342Z" fill="white"/>
</g>
<defs>
<clipPath id="clip0_674_975">
<rect width="34" height="34" fill="white" transform="translate(0.5)"/>
</clipPath>
</defs>
</svg>
