<svg width="33" height="32" viewBox="0 0 33 32" fill="none" xmlns="http://www.w3.org/2000/svg">
<path d="M15.4709 25.3525C15.505 25.3887 15.5407 25.423 15.5779 25.4555C15.5943 25.4698 15.6116 25.4821 15.6283 25.4956C15.6495 25.5125 15.6702 25.5299 15.6922 25.5455C15.7128 25.5602 15.7341 25.5729 15.7552 25.5863C15.7748 25.5988 15.794 25.6119 15.8141 25.6234C15.8357 25.6357 15.858 25.6462 15.8802 25.6572C15.901 25.6677 15.9216 25.6789 15.943 25.6883C15.9646 25.6978 15.9866 25.7055 16.0085 25.7138C16.0314 25.7226 16.0539 25.7318 16.0773 25.7394C16.0992 25.7464 16.1215 25.7517 16.1436 25.7576C16.1675 25.764 16.191 25.7711 16.2153 25.7762C16.2408 25.7816 16.2666 25.7848 16.2923 25.7887C16.3135 25.7919 16.3345 25.7963 16.3561 25.7985C16.4038 25.8035 16.4517 25.8063 16.4996 25.8063C16.5475 25.8063 16.5954 25.8036 16.643 25.7985C16.6649 25.7963 16.6861 25.7919 16.7077 25.7886C16.7331 25.7848 16.7585 25.7816 16.7837 25.7762C16.8085 25.7711 16.8326 25.7637 16.8568 25.7572C16.8785 25.7514 16.9003 25.7464 16.9217 25.7395C16.9456 25.7317 16.9685 25.7222 16.9919 25.7134C17.0133 25.7051 17.035 25.6977 17.0561 25.6884C17.0779 25.6788 17.0988 25.6675 17.12 25.6568C17.1418 25.6459 17.1638 25.6355 17.1852 25.6234C17.2055 25.6118 17.2247 25.5987 17.2444 25.5861C17.2655 25.5727 17.2868 25.5601 17.3073 25.5454C17.3288 25.5301 17.3491 25.513 17.3697 25.4966C17.3871 25.4828 17.4048 25.47 17.4217 25.4553C17.4571 25.4243 17.4909 25.3916 17.5234 25.3573C17.525 25.3557 17.5267 25.3545 17.5282 25.3528L24.3162 18.1272C24.8843 17.5225 24.8843 16.5422 24.3162 15.9375C23.7483 15.3329 22.8273 15.3328 22.2592 15.9374L17.9541 20.5199V1.54839C17.9541 0.693265 17.3029 0 16.4996 0C15.6963 0 15.0451 0.693265 15.0451 1.54839V20.5198L10.7404 15.9375C10.1724 15.3328 9.25141 15.3328 8.68336 15.9375C8.11531 16.5422 8.11531 17.5225 8.68336 18.1272L15.4709 25.3525Z" fill="white"/>
<path d="M31.0455 15.4839C30.2422 15.4839 29.5909 16.1772 29.5909 17.0323V28.9033H3.40909V17.0323C3.40909 16.1772 2.75784 15.4839 1.95455 15.4839C1.15125 15.4839 0.5 16.1772 0.5 17.0323V30.4516C0.5 31.3068 1.15125 32 1.95455 32H31.0455C31.8488 32 32.5 31.3068 32.5 30.4516V17.0323C32.5 16.1772 31.8488 15.4839 31.0455 15.4839Z" fill="white"/>
</svg>
